<?xml version="1.0" encoding="UTF-8"?>
<svg width="64px" height="31px" viewBox="0 0 64 31" version="1.1" xmlns="http://www.w3.org/2000/svg" xmlns:xlink="http://www.w3.org/1999/xlink">
    <title>left-arrow</title>
    <g id="Page-1" stroke="none" stroke-width="1" fill="none" fill-rule="evenodd">
        <g id="left-arrow" fill="#FFFFFF" fill-rule="nonzero">
            <path d="M61.4996206,12.9999292 L8.55491171,12.9999292 L17.3254052,4.271923 C18.3040295,3.29792245 18.3077795,1.71504656 17.3337802,0.736421011 C16.3597809,-0.242329539 14.7767821,-0.245954541 13.7981578,0.727921006 L0.735167507,13.7279283 C0.734292507,13.7286783 0.733667508,13.7295533 0.732917508,13.7303033 C-0.243206768,14.7043039 -0.246331766,16.2923048 0.732667509,17.2695553 C0.733542508,17.2703053 0.734167507,17.2711803 0.734917507,17.2719303 L13.7979078,30.2719376 C14.7764071,31.2456882 16.3594059,31.2423132 17.3335302,30.2634376 C18.3075295,29.2848121 18.3037795,27.7019362 17.3251552,26.7279356 L8.55491171,17.9999292 L61.4996206,17.9999292 C62.8803715,17.9999292 63.9996206,16.8806801 63.9996206,15.4999292 C63.9996206,14.1191785 62.8803715,12.9999292 61.4996206,12.9999292 Z" id="Path"></path>
        </g>
    </g>
</svg>