<?xml version="1.0" encoding="UTF-8"?>
<svg width="26px" height="25px" viewBox="0 0 26 25" version="1.1" xmlns="http://www.w3.org/2000/svg" xmlns:xlink="http://www.w3.org/1999/xlink">
    <title>Group 2</title>
    <g id="Page-1" stroke="none" stroke-width="1" fill="none" fill-rule="evenodd">
        <g id="Group-2" transform="translate(0.000000, 0.977778)" fill="#FFFFFF" fill-rule="nonzero">
            <path d="M0.00833778728,16.473299 C0.00833778728,17.7758817 0.00833778728,19.0846969 0.00833778728,20.3872796 C0.00833778728,20.8671785 -0.0104222341,21.3470773 0.00833778728,21.8269762 C0.0333511491,22.5374759 0.58364511,22.9986774 1.2777659,23.0111423 C3.29134153,23.0360721 5.30491716,23.0111423 7.31849278,23.0111423 C10.7328167,23.0111423 14.1408872,23.0111423 17.5552111,23.0111423 C19.8626937,23.0111423 22.1701764,23.0111423 24.4714057,23.0111423 C24.6527525,23.0111423 24.8403528,23.0236072 25.0216996,22.9924449 C25.5970069,22.8927257 25.9722074,22.3941295 25.9972207,21.8269762 C26.0034741,21.6649324 25.9972207,21.5091211 25.9972207,21.3470773 C25.9972207,19.8512886 25.9972207,18.3554999 25.9972207,16.8597111 C25.9972207,16.7350621 25.9972207,16.6041806 25.9972207,16.4795315 C25.9972207,15.8749835 25.0592197,15.8749835 25.0592197,16.4795315 C25.0592197,17.7260221 25.0592197,18.9725127 25.0592197,20.2190033 C25.0592197,20.7362969 25.1154997,21.2847528 25.0592197,21.8020464 C25.0342063,22.0638094 24.8653661,22.0762743 24.6527525,22.0762743 C22.6204169,22.0762743 20.5818279,22.0762743 18.5494923,22.0762743 C15.2227151,22.0762743 11.895938,22.0762743 8.56916088,22.0762743 C6.26167825,22.0762743 3.95419562,22.0762743 1.65296633,22.0762743 C1.5091395,22.0762743 1.34655265,22.0949717 1.20272582,22.0762743 C0.840032068,22.0264147 0.952592197,21.4904238 0.952592197,21.2286607 C0.952592197,19.7578018 0.952592197,18.2931753 0.952592197,16.8223164 C0.952592197,16.7038998 0.952592197,16.5917156 0.952592197,16.473299 C0.946338856,15.8749835 0.00833778728,15.8687511 0.00833778728,16.473299 L0.00833778728,16.473299 Z" id="Path"></path>
            <g id="Group" transform="translate(7.000000, 0.022222)">
                <path d="M5.45454545,0.479228257 C5.45454545,2.28252884 5.45454545,4.09231611 5.45454545,5.8956167 C5.45454545,8.77570827 5.45454545,11.6557998 5.45454545,14.5423781 C5.45454545,15.2105075 5.45454545,15.8721501 5.45454545,16.5402795 C5.45454545,17.1694887 6.54545455,17.1694887 6.54545455,16.5402795 C6.54545455,14.7369789 6.54545455,12.9271916 6.54545455,11.123891 C6.54545455,8.24379947 6.54545455,5.36370789 6.54545455,2.47712962 C6.54545455,1.80900027 6.54545455,1.14735761 6.54545455,0.479228257 C6.54545455,-0.143494246 5.45454545,-0.143494246 5.45454545,0.479228257 L5.45454545,0.479228257 Z" id="Path"></path>
                <path d="M0.152862361,11.8034677 C1.75858615,13.2832914 3.36430995,14.7696341 4.97643105,16.2494579 C5.20673406,16.4580674 5.43063977,16.6666769 5.66094278,16.8752864 C5.85925927,17.0578197 6.14074073,17.0578197 6.33905722,16.8752864 C7.94478101,15.3954627 9.5505048,13.9091199 11.1626259,12.4292962 C11.3929289,12.2206867 11.6168346,12.0120772 11.8471376,11.8034677 C12.3077437,11.3797296 11.6232319,10.6887106 11.1690232,11.1124487 C9.56329941,12.5922724 7.95757562,14.0786151 6.34545452,15.5584389 C6.11515151,15.7670484 5.8912458,15.9756579 5.66094278,16.1842674 C5.88484849,16.1842674 6.11515151,16.1842674 6.33905722,16.1842674 C4.73333342,14.7044437 3.12760963,13.2181009 1.51548853,11.7382772 C1.28518551,11.5296677 1.06127981,11.3210582 0.830976792,11.1124487 C0.37676807,10.6887106 -0.307743667,11.3797296 0.152862361,11.8034677 L0.152862361,11.8034677 Z" id="Path"></path>
            </g>
        </g>
    </g>
</svg>