<?xml version="1.0" encoding="UTF-8"?>
<svg width="327px" height="37px" viewBox="0 0 327 37" version="1.1" xmlns="http://www.w3.org/2000/svg" xmlns:xlink="http://www.w3.org/1999/xlink">
    <title>DRONELOADS</title>
    <g id="Page-1" stroke="none" stroke-width="1" fill="none" fill-rule="evenodd">
        <path d="M11.75,36 C20.5,36 25.85,28.15 25.85,18.4 C25.85,8.7 20.5,0.85 11.75,0.85 L0.75,0.85 L0.75,36 L11.75,36 Z M11.75,34.1 L2.85,34.1 L2.85,2.75 L11.75,2.75 C19.05,2.75 23.65,9.75 23.65,18.4 C23.65,27.1 19.05,34.1 11.75,34.1 Z M38.1166667,36 L38.1166667,20.25 L47.8166667,20.25 L57.6666667,36 L60.1666667,36 L50.3166667,20.25 C56.2166667,20.25 60.0166667,15.85 60.0166667,10.55 C60.0166667,5.25 56.3666667,0.85 50.7166667,0.85 L36.0166667,0.85 L36.0166667,36 L38.1166667,36 Z M50.5666667,18.35 L38.1166667,18.35 L38.1166667,2.75 L50.5666667,2.75 C55.0166667,2.75 57.8166667,6.3 57.8166667,10.55 C57.8166667,14.8 55.0166667,18.35 50.5666667,18.35 Z M82.4333333,36.65 C91.1833333,36.65 96.5333333,28.55 96.5333333,18.45 C96.5333333,8.35 91.1833333,0.2 82.4333333,0.2 C73.6833333,0.2 68.3333333,8.35 68.3333333,18.45 C68.3333333,28.55 73.6833333,36.65 82.4333333,36.65 Z M82.4333333,34.75 C75.1333333,34.75 70.5333333,27.5 70.5333333,18.45 C70.5333333,9.4 75.1333333,2.1 82.4333333,2.1 C89.7833333,2.1 94.3333333,9.4 94.3333333,18.45 C94.3333333,27.5 89.7833333,34.75 82.4333333,34.75 Z M108.8,36 L108.8,4.2 L129.35,36 L131.7,36 L131.7,0.85 L129.6,0.85 L129.6,32.7 L109,0.85 L106.7,0.85 L106.7,36 L108.8,36 Z M165.466667,36 L165.466667,34.1 L145.466667,34.1 L145.466667,18.55 L159.916667,18.55 L159.916667,16.65 L145.466667,16.65 L145.466667,2.75 L164.466667,2.75 L164.466667,0.85 L143.366667,0.85 L143.366667,36 L165.466667,36 Z M195.183333,36 L195.183333,34.1 L177.233333,34.1 L177.233333,0.85 L175.133333,0.85 L175.133333,36 L195.183333,36 Z M213.2,36.65 C221.95,36.65 227.3,28.55 227.3,18.45 C227.3,8.35 221.95,0.2 213.2,0.2 C204.45,0.2 199.1,8.35 199.1,18.45 C199.1,28.55 204.45,36.65 213.2,36.65 Z M213.2,34.75 C205.9,34.75 201.3,27.5 201.3,18.45 C201.3,9.4 205.9,2.1 213.2,2.1 C220.55,2.1 225.1,9.4 225.1,18.45 C225.1,27.5 220.55,34.75 213.2,34.75 Z M235.916667,36 L239.516667,25.85 L247.441667,4.06614685 L255.366667,25.85 L258.966667,36 L261.166667,36 L248.616667,0.85 L246.266667,0.85 L233.716667,36 L235.916667,36 Z M281.083333,36 C289.833333,36 295.183333,28.15 295.183333,18.4 C295.183333,8.7 289.833333,0.85 281.083333,0.85 L270.083333,0.85 L270.083333,36 L281.083333,36 Z M281.083333,34.1 L272.183333,34.1 L272.183333,2.75 L281.083333,2.75 C288.383333,2.75 292.983333,9.75 292.983333,18.4 C292.983333,27.1 288.383333,34.1 281.083333,34.1 Z M314.8,36.65 C321.15,36.65 326.1,33.2 326.1,27.1 C326.1,22.9 323.6,19.85 314.75,16.45 C308.4,14 306.35,12.3 306.35,8.55 C306.35,4.2 310.15,2.1 314.6,2.1 C318.9,2.1 322.05,4 324.25,7.4 L325.9,6.1 C323.4,2.25 319.5,0.2 314.75,0.2 C308.9,0.2 304.15,3 304.15,8.75 C304.15,12.85 306.55,15.75 313.45,18.25 C321.4,21.15 323.9,23.7 323.9,26.9 C323.9,31.7 320.55,34.75 314.9,34.75 C310.4,34.75 307.05,32.4 305.45,28 L303.6,29.1 C305.9,34.35 309.95,36.65 314.8,36.65 Z" id="DRONELOADS" fill="#FFFFFF" fill-rule="nonzero"></path>
    </g>
</svg>